<?xml version="1.0" encoding="utf-8"?>
<!-- Generator: Adobe Illustrator 24.2.3, SVG Export Plug-In . SVG Version: 6.00 Build 0)  -->
<svg version="1.1" id="Layer_1" xmlns="http://www.w3.org/2000/svg" xmlns:xlink="http://www.w3.org/1999/xlink" x="0px" y="0px"
	 viewBox="0 0 122.4 37" style="enable-background:new 0 0 122.4 37;" xml:space="preserve">
<style type="text/css">
	.st0{clip-path:url(#SVGID_2_);}
	.st1{fill:#16A34A;}
</style>
<g>
	<defs>
		<rect id="SVGID_1_" width="122.4" height="37"/>
	</defs>
	<clipPath id="SVGID_2_">
		<use xlink:href="#SVGID_1_"  style="overflow:visible;"/>
	</clipPath>
	<g class="st0">
		<path class="st1" d="M3.5,34.3c0.8-0.9,1.5-1.5,2.1-2.2c0.6-0.9,1.8-1.2,2.7-0.6c0,0,0,0,0,0c2.2,1.1,4.9,0.3,6-1.9
			c0.1-0.3,0.3-0.6,0.4-0.9c-2.1,0.1-4.3,0.1-6.4,0C3.1,27.8-0.5,23,0,17.8c0.6-5.3,5.1-9.2,10.4-9.2c5.2,0.1,9.5,4.2,9.8,9.5
			c0.2,3.3,0.1,6.6-0.1,10c-0.3,4-2.7,6.7-6.3,8.1C10.3,37.7,6.3,36.9,3.5,34.3z M10.2,13.8c-2.8,0-5,2.3-4.9,5.1s2.3,5,5.1,4.9l0,0
			c2.7,0,4.9-2.2,4.9-5c0,0,0,0,0-0.1c0.1-2.7-2-5-4.7-5C10.4,13.8,10.3,13.8,10.2,13.8L10.2,13.8z"/>
		<path class="st1" d="M117.3,9.8V0c3.9-0.1,5,0.9,5,4.3v14.5c0,6.6-4.9,10.8-11.7,10.2c-5.1-0.4-9.6-6.1-8.8-11.3
			c0.7-5.7,5.8-9.7,11.5-9c0.5,0.1,0.9,0.1,1.3,0.3C115.4,9.3,116.2,9.5,117.3,9.8z M112.2,13.8c-2.8,0.1-5.1,2.4-5,5.2
			s2.4,5.1,5.2,5s5.1-2.4,5-5.2c0-2.1-1.3-3.9-3.2-4.6C113.5,13.9,112.8,13.8,112.2,13.8L112.2,13.8z"/>
		<path class="st1" d="M90.6,18.9c0,2.7-0.1,5.5,0,8.2c0.1,1.6-0.5,2-2,1.9c-2.6-0.1-5.2,0.1-7.8,0.1c-4,0.2-7.7-1.9-9.4-5.5
			c-1.9-3.4-1.6-7.7,0.9-10.8c2.6-3.5,6.2-4.6,10.4-3.9c1.3,0.2,2.4,0.7,3.7-0.3c0.7-0.5,2.1-0.3,3.2,0c0.4,0.1,0.9,1,1,1.5
			C90.7,13.1,90.6,16,90.6,18.9z M80.6,13.8c-2.9-0.1-5.2,2.2-5.3,5s2.2,5.2,5,5.3c0.1,0,0.2,0,0.3,0c2.9,0,5.2-2.2,5.3-5.1
			s-2.2-5.2-5.1-5.3C80.7,13.8,80.6,13.8,80.6,13.8L80.6,13.8z"/>
		<path class="st1" d="M66.4,26.2c-5.1,5.4-14.4,3-16.6-4.1c-1.6-5.4,1.5-11,6.9-12.6c5.3-1.6,10.9,1.5,12.6,6.8
			c1.4,4.7,1.1,5.1-3.9,5.1h-10c0.5,2.1,2.5,3.4,4.6,3c0.3-0.1,0.7-0.2,1-0.3C64,22.5,64.9,24.5,66.4,26.2z M55.2,16.4H64
			c-0.9-1.8-2.7-2.8-4.7-2.7C57.5,13.6,55.8,14.7,55.2,16.4L55.2,16.4z"/>
		<path class="st1" d="M30.3,9c1.5-0.1,3.1-0.1,4.6,0.1c0.6,0.1,1.2,1,1.4,1.6c1.4,3.2,2.6,6.5,4.1,10.4c0.7-1.5,1.2-2.4,1.5-3.3
			c0.9-2.1,1.7-4.3,2.5-6.5c0.6-1.8,1.5-2.7,3.4-2.3c1,0.1,1.9,0.1,2.9,0c-0.7,1.8-1.3,3.2-1.8,4.5c-1.9,4.8-3.8,9.5-5.8,14.2
			c-0.5,0.7-1.4,1.2-2.3,1.3c-1,0.2-2.3,0.5-2.9-1.1C35.5,21.8,33,15.6,30.3,9z"/>
		<path class="st1" d="M99.3,8.4v8.4c0,3.6,0,7.2,0,10.8c0,1.6-1,1.6-2,1.4c-1.1-0.2-3,0.9-3-1.3c-0.1-5.6,0-11.1,0-16.7
			c0.1-0.6,0.5-1.1,1.1-1.4C96.6,9.1,97.9,8.7,99.3,8.4z"/>
		<path class="st1" d="M28.9,8.4v3.7c0,5-0.1,10,0,15c0.1,2.2-1.1,2-2.6,2.1c-1.6,0-2.6-0.1-2.5-2.1c0.1-4.8,0.2-9.5,0-14.3
			c-0.1-2.1,0.5-3.3,2.6-3.6C27.3,8.9,28.1,8.7,28.9,8.4z"/>
	</g>
</g>
</svg>
