<svg xmlns="http://www.w3.org/2000/svg" xmlns:xlink="http://www.w3.org/1999/xlink" width="122.361" height="36.95" viewBox="0 0 122.361 36.95"><defs><clipPath id="a"><rect width="122.361" height="36.95" fill="#fff"/></clipPath></defs><g clip-path="url(#a)"><path d="M3.488,45.519c.815-.872,1.491-1.526,2.08-2.246a1.977,1.977,0,0,1,2.764-.619,4.464,4.464,0,0,0,6.375-2.782A45.536,45.536,0,0,1,8.3,39.825,9.909,9.909,0,0,1,.048,29.037,10.321,10.321,0,0,1,10.421,19.88a9.987,9.987,0,0,1,9.763,9.475,90.482,90.482,0,0,1-.052,9.968c-.3,3.955-2.669,6.68-6.3,8.075A9.669,9.669,0,0,1,3.488,45.519Zm6.693-20.494a5.015,5.015,0,1,0,.148,10.029,4.949,4.949,0,0,0,4.932-5.023A4.892,4.892,0,0,0,10.16,25Z" transform="translate(0 -11.208)" fill="#fff"/><path d="M248.948,9.763V-.013c3.885-.122,5.006.872,5.006,4.334V18.85c-.031,6.571-4.866,10.783-11.725,10.247-5.15-.406-9.593-6.1-8.79-11.263a10.333,10.333,0,0,1,12.837-8.777C247.029,9.24,247.788,9.462,248.948,9.763Zm-5.193,4.059a5.124,5.124,0,1,0,2.011.365A5.17,5.17,0,0,0,243.755,13.823Z" transform="translate(-131.598 0.013)" fill="#fff"/><path d="M181.438,29.8c0,2.747-.074,5.5.031,8.241.057,1.557-.536,1.98-2.014,1.945-2.616-.052-5.2.083-7.8.135a9.715,9.715,0,0,1-9.366-5.5,9.717,9.717,0,0,1,.872-10.827c2.555-3.488,6.187-4.587,10.373-3.889,1.308.214,2.389.746,3.732-.283.685-.528,2.132-.262,3.166-.044.436.092.942,1,.959,1.548C181.486,24.013,181.438,26.909,181.438,29.8Zm-10.029-5.058a5.176,5.176,0,1,0,.039,10.347,5.175,5.175,0,1,0-.061-10.347Z" transform="translate(-90.821 -10.893)" fill="#fff"/><path d="M130.3,37.8c-5.062,5.424-14.389,3-16.569-4.077a10.16,10.16,0,0,1,19.46-5.847c1.365,4.692,1.051,5.128-3.889,5.128h-10a3.864,3.864,0,0,0,5.551,2.616C127.857,34.116,128.769,36.131,130.3,37.8ZM119.1,28.033h8.764a4.76,4.76,0,0,0-4.722-2.66,4.073,4.073,0,0,0-4.042,2.651Z" transform="translate(-63.9 -11.643)" fill="#fff"/><path d="M69.4,20.408a30.047,30.047,0,0,1,4.639.074c.558.092,1.164.951,1.43,1.6,1.352,3.248,2.616,6.541,4.116,10.408.685-1.461,1.164-2.363,1.539-3.31C82,27.032,82.869,24.9,83.584,22.7c.567-1.783,1.5-2.655,3.449-2.333a20.766,20.766,0,0,0,2.9.022c-.711,1.779-1.256,3.161-1.814,4.539-1.923,4.753-3.794,9.527-5.847,14.224a3.328,3.328,0,0,1-2.285,1.308c-1.038.161-2.328.48-2.935-1.051C74.6,33.25,72.095,27.084,69.4,20.408Z" transform="translate(-39.139 -11.448)" fill="#fff"/><path d="M221.093,19.17v8.4c0,3.615-.035,7.229,0,10.844.022,1.583-1.012,1.6-2.032,1.435-1.094-.174-2.952.872-2.978-1.347-.074-5.568-.048-11.132.026-16.7a1.974,1.974,0,0,1,1.068-1.4A35.491,35.491,0,0,1,221.093,19.17Z" transform="translate(-121.838 -10.811)" fill="#fff"/><path d="M59.733,19.24v3.689c0,4.988-.109,9.972.048,14.956.065,2.18-1.094,2.023-2.564,2.062-1.583.039-2.555-.092-2.494-2.141.148-4.766.157-9.54,0-14.3-.07-2.084.488-3.275,2.616-3.584A20.55,20.55,0,0,0,59.733,19.24Z" transform="translate(-30.858 -10.851)" fill="#fff"/></g></svg>